<svg width="20" height="21" viewBox="0 0 20 21" fill="none" xmlns="http://www.w3.org/2000/svg">
<path d="M5 13V5.08334C5 4.88692 5 4.78871 5.06102 4.72769C5.12204 4.66667 5.22025 4.66667 5.41667 4.66667H13.9941C14.4222 4.66667 14.6362 4.66667 14.6895 4.79528C14.7427 4.92389 14.5914 5.07525 14.2887 5.37796L11.069 8.59764C10.9579 8.70875 10.9023 8.76431 10.9023 8.83334C10.9023 8.90234 10.9579 8.95792 11.069 9.06901L14.2887 12.2887C14.5914 12.5914 14.7427 12.7428 14.6895 12.8714C14.6362 13 14.4222 13 13.9941 13H5ZM5 13V16.3333" stroke="white" stroke-linecap="round"/>
</svg>
