<svg width="25" height="24" viewBox="0 0 25 24" fill="none" xmlns="http://www.w3.org/2000/svg">
<path d="M4 8C4 7.04306 4.00106 6.37565 4.06876 5.87208C4.13453 5.3829 4.25483 5.12385 4.43934 4.93934C4.62385 4.75483 4.8829 4.63453 5.37208 4.56876C5.87565 4.50106 6.54306 4.5 7.5 4.5H17.5C18.4569 4.5 19.1244 4.50106 19.6279 4.56876C20.1171 4.63453 20.3762 4.75483 20.5607 4.93934C20.7452 5.12385 20.8655 5.3829 20.9312 5.87208C20.9989 6.37565 21 7.04306 21 8V16.5H4V8Z" stroke="white"/>
<path d="M4.16667 16.5C3.52233 16.5 3 17.0223 3 17.6667C3 18.6792 3.82081 19.5 4.83333 19.5H20.1667C21.1792 19.5 22 18.6792 22 17.6667C22 17.0223 21.4777 16.5 20.8333 16.5H4.16667Z" stroke="white"/>
</svg>
