<svg width="20" height="15" viewBox="0 0 20 15" fill="none" xmlns="http://www.w3.org/2000/svg">
<g clip-path="url(#clip0_880_398)">
<path d="M16.6396 1.23994C18.8054 4.42646 19.875 8.02078 19.4752 12.1586C19.4735 12.1762 19.4644 12.1922 19.45 12.2028C17.8099 13.4079 16.2208 14.1393 14.6541 14.6243C14.6419 14.628 14.6288 14.6278 14.6168 14.6238C14.6047 14.6197 14.5942 14.6119 14.5867 14.6016C14.2248 14.0976 13.8959 13.5662 13.6078 13.0083C13.5912 12.9754 13.6063 12.9358 13.6404 12.9229C14.1627 12.726 14.6594 12.4899 15.1371 12.2105C15.1748 12.1884 15.1771 12.1344 15.1424 12.1085C15.041 12.0332 14.9406 11.954 14.8444 11.8749C14.8265 11.8602 14.8022 11.8574 14.7819 11.8672C11.6803 13.3005 8.2826 13.3005 5.14431 11.8672C5.12394 11.8581 5.09973 11.8612 5.08223 11.8756C4.98634 11.9548 4.88566 12.0332 4.78523 12.1085C4.75047 12.1344 4.75334 12.1884 4.79122 12.2105C5.26896 12.4846 5.76564 12.726 6.28725 12.9239C6.32105 12.9368 6.33711 12.9754 6.32033 13.0083C6.03843 13.567 5.70955 14.0983 5.34087 14.6023C5.32481 14.6227 5.29845 14.632 5.27352 14.6243C3.7142 14.1393 2.12516 13.4079 0.485062 12.2028C0.471399 12.1922 0.461571 12.1754 0.460132 12.1579C0.125976 8.57873 0.806993 4.95467 3.29303 1.23922C3.29902 1.22939 3.30813 1.22171 3.31868 1.21715C4.54192 0.655362 5.85242 0.242055 7.22212 0.00601609C7.24705 0.00217806 7.27198 0.0136921 7.28493 0.0357608C7.45416 0.335607 7.64761 0.720129 7.77849 1.03437C9.22227 0.813681 10.6886 0.813681 12.1626 1.03437C12.2934 0.726846 12.4802 0.335607 12.6487 0.0357608C12.6547 0.0248128 12.664 0.0160418 12.6753 0.0107001C12.6865 0.00535839 12.6992 0.00371904 12.7115 0.00601609C14.0819 0.242774 15.3924 0.656082 16.6147 1.21715C16.6255 1.22171 16.6343 1.22939 16.6396 1.23994ZM8.51248 8.04524C8.52759 6.98715 7.75668 6.1116 6.78897 6.1116C5.82916 6.1116 5.06569 6.97947 5.06569 8.04524C5.06569 9.11078 5.84427 9.97865 6.78897 9.97865C7.74901 9.97865 8.51248 9.11078 8.51248 8.04524ZM14.8845 8.04524C14.8996 6.98715 14.1287 6.1116 13.1612 6.1116C12.2011 6.1116 11.4377 6.97947 11.4377 8.04524C11.4377 9.11078 12.2162 9.97865 13.1612 9.97865C14.1287 9.97865 14.8845 9.11078 14.8845 8.04524Z" fill="white"/>
</g>
<defs>
<clipPath id="clip0_880_398">
<rect width="20" height="14.6341" fill="white"/>
</clipPath>
</defs>
</svg>
