<svg width="25" height="24" viewBox="0 0 25 24" fill="none" xmlns="http://www.w3.org/2000/svg">
<path d="M4.95137 13.9082L11.904 20.4395C12.1435 20.6644 12.2632 20.7769 12.4044 20.8046C12.468 20.8171 12.5334 20.8171 12.597 20.8046C12.7382 20.7769 12.8579 20.6644 13.0974 20.4395L20.05 13.9082C22.0062 12.0706 22.2437 9.0466 20.5985 6.92607L20.2892 6.52734C18.321 3.99058 14.3703 4.41601 12.9874 7.31365C12.792 7.72296 12.2094 7.72296 12.014 7.31365C10.6311 4.41601 6.68042 3.99058 4.71224 6.52735L4.40289 6.92607C2.75765 9.0466 2.9952 12.0706 4.95137 13.9082Z" stroke="#008D34"/>
</svg>
