<svg width="20" height="21" viewBox="0 0 20 21" fill="none" xmlns="http://www.w3.org/2000/svg">
<path d="M3.70915 12.0902L9.50301 17.5329C9.70259 17.7203 9.80234 17.8141 9.92001 17.8372C9.97301 17.8476 10.0275 17.8476 10.0805 17.8372C10.1982 17.8141 10.2979 17.7203 10.4975 17.5329L16.2913 12.0902C17.9215 10.5588 18.1194 8.03883 16.7484 6.27172L16.4907 5.93945C14.8505 3.82548 11.5583 4.18001 10.4058 6.59471C10.243 6.9358 9.75751 6.9358 9.59468 6.59471C8.44226 4.18001 5.15003 3.82548 3.50988 5.93946L3.25208 6.27172C1.88105 8.03883 2.07901 10.5588 3.70915 12.0902Z" stroke="white"/>
</svg>
