<svg width="20" height="20" viewBox="0 0 20 20" fill="none" xmlns="http://www.w3.org/2000/svg">
<path d="M7.91634 7.94135C7.91634 7.28177 7.03902 7.10686 6.80627 7.72411C6.24324 9.21702 5.83301 10.5525 5.83301 11.2746C5.83301 13.5758 7.69849 15.4413 9.99967 15.4413C12.3008 15.4413 14.1663 13.5758 14.1663 11.2746C14.1663 10.4989 13.6928 9.01502 13.065 7.38861C12.2518 5.28177 11.8452 4.22836 11.3433 4.17161C11.1827 4.15344 11.0074 4.18611 10.8642 4.26086C10.4163 4.49453 10.4163 5.64344 10.4163 7.94135C10.4163 8.63169 9.85667 9.19135 9.16634 9.19135C8.47601 9.19135 7.91634 8.63169 7.91634 7.94135Z" stroke="white"/>
</svg>
