<svg width="20" height="20" viewBox="0 0 20 20" fill="none" xmlns="http://www.w3.org/2000/svg">
<path d="M15.833 4.16667H4.16634C3.7061 4.16667 3.33301 4.53976 3.33301 5V7.5C3.33301 7.96024 3.7061 8.33333 4.16634 8.33333H15.833C16.2932 8.33333 16.6663 7.96024 16.6663 7.5V5C16.6663 4.53976 16.2932 4.16667 15.833 4.16667Z" stroke="#008D34" stroke-linejoin="round"/>
<path d="M15.833 11.6667H4.16634C3.7061 11.6667 3.33301 12.0398 3.33301 12.5V15C3.33301 15.4602 3.7061 15.8333 4.16634 15.8333H15.833C16.2932 15.8333 16.6663 15.4602 16.6663 15V12.5C16.6663 12.0398 16.2932 11.6667 15.833 11.6667Z" stroke="#008D34" stroke-linejoin="round"/>
<path d="M15 6.25C15 6.48012 14.8135 6.66667 14.5833 6.66667C14.3532 6.66667 14.1667 6.48012 14.1667 6.25C14.1667 6.01988 14.3532 5.83333 14.5833 5.83333C14.8135 5.83333 15 6.01988 15 6.25Z" fill="#008D34"/>
<path d="M15 13.75C15 13.9801 14.8135 14.1667 14.5833 14.1667C14.3532 14.1667 14.1667 13.9801 14.1667 13.75C14.1667 13.5199 14.3532 13.3333 14.5833 13.3333C14.8135 13.3333 15 13.5199 15 13.75Z" fill="#008D34"/>
<path d="M13.3333 6.25C13.3333 6.48012 13.1468 6.66667 12.9167 6.66667C12.6865 6.66667 12.5 6.48012 12.5 6.25C12.5 6.01988 12.6865 5.83333 12.9167 5.83333C13.1468 5.83333 13.3333 6.01988 13.3333 6.25Z" fill="#008D34"/>
<path d="M13.3333 13.75C13.3333 13.9801 13.1468 14.1667 12.9167 14.1667C12.6865 14.1667 12.5 13.9801 12.5 13.75C12.5 13.5199 12.6865 13.3333 12.9167 13.3333C13.1468 13.3333 13.3333 13.5199 13.3333 13.75Z" fill="#008D34"/>
</svg>
