<svg width="21" height="20" viewBox="0 0 21 20" fill="none" xmlns="http://www.w3.org/2000/svg">
<path d="M8.95262 5.52296C9.60812 3.88879 9.93587 3.07172 10.4995 3.07172C11.0631 3.07172 11.3909 3.8888 12.0464 5.52297L12.0769 5.59906C12.4472 6.52228 12.6324 6.98389 13.0098 7.26447C13.3871 7.54504 13.8825 7.58941 14.8733 7.67813L15.0524 7.69417C16.6739 7.8394 17.4847 7.91201 17.6581 8.42782C17.8316 8.94366 17.2295 9.49141 16.0253 10.587L15.6234 10.9527C15.0139 11.5072 14.709 11.7846 14.5669 12.148C14.5404 12.2158 14.5184 12.2852 14.501 12.3559C14.4076 12.7348 14.4969 13.1371 14.6754 13.9417L14.7309 14.1921C15.059 15.6707 15.223 16.41 14.9367 16.7289C14.8296 16.8481 14.6905 16.9338 14.536 16.976C14.1225 17.0888 13.5354 16.6105 12.3614 15.6537C11.5904 15.0255 11.2049 14.7113 10.7623 14.6407C10.5882 14.6129 10.4108 14.6129 10.2367 14.6407C9.79412 14.7113 9.40862 15.0255 8.63767 15.6537C7.46354 16.6105 6.87648 17.0888 6.46298 16.976C6.30847 16.9338 6.16937 16.8481 6.06235 16.7289C5.77596 16.41 5.93998 15.6707 6.26805 14.1921L6.32361 13.9417C6.50212 13.1371 6.59137 12.7348 6.49799 12.3559C6.48057 12.2852 6.45854 12.2158 6.43204 12.148C6.28998 11.7846 5.98519 11.5072 5.3756 10.9527L4.9737 10.587C3.76949 9.49141 3.16739 8.94366 3.34087 8.42782C3.51436 7.91201 4.32512 7.8394 5.94662 7.69417L6.12574 7.67813C7.1165 7.58941 7.61188 7.54504 7.98926 7.26447C8.36663 6.98389 8.5518 6.52228 8.92212 5.59906L8.95262 5.52296Z" stroke="white"/>
</svg>
