<svg width="32" height="32" viewBox="0 0 32 32" fill="none" xmlns="http://www.w3.org/2000/svg">
<rect width="32" height="32" rx="16" fill="#00ACED"/>
<g clip-path="url(#clip0_323_436)">
<path d="M14.1135 21.3888C18.5913 21.3888 21.0401 17.6777 21.0401 14.4596C21.0401 14.3542 21.0379 14.2493 21.0332 14.1449C21.5096 13.8 21.9208 13.3729 22.2475 12.8838C21.8113 13.0778 21.3419 13.2083 20.8495 13.2672C21.3521 12.9657 21.738 12.4888 21.92 11.9202C21.4421 12.2038 20.9193 12.4037 20.3742 12.5113C19.9299 12.038 19.2975 11.7419 18.5971 11.7419C17.2528 11.7419 16.1626 12.8325 16.1626 14.1769C16.1626 14.368 16.184 14.5539 16.2257 14.7322C14.2024 14.6304 12.4083 13.6613 11.2076 12.1877C10.9913 12.5594 10.8775 12.9818 10.8779 13.4118C10.8779 14.2567 11.3077 15.0026 11.9613 15.439C11.5747 15.4271 11.1966 15.3227 10.8587 15.1344C10.8584 15.1446 10.8584 15.1545 10.8584 15.1655C10.8584 16.3449 11.6975 17.3296 12.8114 17.5527C12.6022 17.6097 12.3863 17.6386 12.1695 17.6384C12.0129 17.6384 11.8603 17.623 11.712 17.5945C12.0219 18.5622 12.9206 19.2663 13.9861 19.286C13.1529 19.9393 12.1033 20.3284 10.9625 20.3284C10.7685 20.3286 10.5746 20.3173 10.3818 20.2947C11.4592 20.9855 12.7386 21.3886 14.1136 21.3886" fill="white"/>
</g>
<defs>
<clipPath id="clip0_323_436">
<rect width="16" height="10.7776" fill="white" transform="translate(8 10.6112)"/>
</clipPath>
</defs>
</svg>
