<svg width="20" height="21" viewBox="0 0 20 21" fill="none" xmlns="http://www.w3.org/2000/svg">
<path d="M16.2741 17.015L16.2741 17.015C16.3599 16.9971 16.4187 16.9455 16.4461 16.8938C16.4704 16.8479 16.4712 16.8048 16.4454 16.7585L16.2741 17.015ZM16.2741 17.015C12.1357 17.8775 7.86397 17.8775 3.72559 17.015L3.72558 17.015M16.2741 17.015L3.72558 17.015M3.72558 17.015C3.63982 16.9971 3.58105 16.9455 3.55361 16.8938M3.72558 17.015L3.55361 16.8938M14.3094 14.6348C13.0833 13.9031 11.5683 13.5 9.99985 13.5C8.43139 13.5 6.9164 13.9031 5.69037 14.6348C4.73918 15.2025 4.01099 15.9383 3.5543 16.7585L14.3094 14.6348ZM14.3094 14.6348C15.2605 15.2025 15.9887 15.9383 16.4454 16.7585L14.3094 14.6348ZM3.55361 16.8938C3.52929 16.8479 3.5285 16.8048 3.55429 16.7585L3.55361 16.8938Z" stroke="white"/>
<path d="M13.6673 7.16667C13.6673 9.19171 12.0257 10.8333 10.0007 10.8333C7.97561 10.8333 6.33398 9.19171 6.33398 7.16667C6.33398 5.14162 7.97561 3.5 10.0007 3.5C12.0257 3.5 13.6673 5.14162 13.6673 7.16667Z" stroke="white"/>
</svg>
