<svg width="20" height="21" viewBox="0 0 20 21" fill="none" xmlns="http://www.w3.org/2000/svg">
<path d="M10.0007 17.1667C13.6825 17.1667 16.6673 14.1819 16.6673 10.5C16.6673 6.8181 13.6825 3.83333 10.0007 3.83333C6.31875 3.83333 3.33398 6.8181 3.33398 10.5C3.33398 14.1819 6.31875 17.1667 10.0007 17.1667Z" stroke="white"/>
<path d="M15.4766 6.50531C14.8735 7.21128 14.0724 7.79052 13.1393 8.19518C12.2062 8.59986 11.168 8.81834 10.1104 8.83259C9.05294 8.84684 8.00643 8.65644 7.05736 8.27713C6.10829 7.89783 5.28392 7.34049 4.65234 6.65116" stroke="white"/>
<path d="M15.4766 14.4947C14.8735 13.7887 14.0724 13.2095 13.1393 12.8048C12.2062 12.4002 11.168 12.1817 10.1104 12.1674C9.05294 12.1532 8.00643 12.3436 7.05736 12.7228C6.10829 13.1022 5.28392 13.6595 4.65234 14.3488" stroke="white"/>
<path d="M10 3.83333V17.1667" stroke="white"/>
</svg>
