<svg width="120" height="20" viewBox="0 0 120 20" fill="none" xmlns="http://www.w3.org/2000/svg">
<path d="M6.28 12.16V20H0.4V0.399999H6.28V4.32H8.24V8.24H12.16V4.32H14.12V0.399999H20V20H14.12V12.16H12.16V16.08H8.24V12.16H6.28ZM22.7945 20V0.399999H28.6745V20H22.7945ZM37.3425 12.16V20H31.4625V0.399999H37.3425V4.32H39.3025V8.24H41.2625V0.399999H47.1425V20H41.2625V16.08H39.3025V12.16H37.3425ZM55.8269 12.16V16.08H63.6669V20H49.9469V0.399999H63.6669V4.32H55.8269V8.24H61.7069V12.16H55.8269ZM66.4625 20V0.399999H72.3425V16.08H78.2225V20H66.4625ZM81.0094 20V0.399999H86.8894V20H81.0094ZM89.6773 12.16V0.399999H103.397V4.32H95.5573V8.24H103.397V20H89.6773V16.08H97.5173V12.16H89.6773ZM115.993 4.32V20H110.113V4.32H106.193V0.399999H119.913V4.32H115.993Z" fill="#F2F2F2"/>
</svg>
